<svg xmlns="http://www.w3.org/2000/svg" xmlns:xlink="http://www.w3.org/1999/xlink" style="display: none;">
    <!-- Facebook -->
    <symbol id="facebook" viewBox="0 0 16 16">
        <path d="M16 8.049c0-4.446-3.582-8.05-8-8.05C3.58 0-.002 3.603-.002 8.05c0 4.017 2.926 7.347 6.75 7.951v-5.625h-2.03V8.05H6.75V6.275c0-2.017 1.195-3.131 3.022-3.131.876 0 1.791.157 1.791.157v1.98h-1.009c-.993 0-1.303.621-1.303 1.258v1.51h2.218l-.354 2.326H9.25V16c3.824-.604 6.75-3.934 6.75-7.951z"/>
    </symbol>

    <!-- Twitter/X -->
    <symbol id="twitter" viewBox="0 0 16 16">
        <path d="M12.6.75h2.454l-5.36 6.142L16 15.25h-4.937l-3.867-5.07-4.425 5.07H.316l5.733-6.57L0 .75h5.063l3.495 4.633L12.601.75Zm-.86 13.028h1.36L4.323 2.145H2.865l8.875 11.633Z"/>
    </symbol>

    <!-- Instagram -->
    <symbol id="instagram" viewBox="0 0 16 16">
        <path fill="url(#instagram-gradient)" d="M8 0C5.829 0 5.556.01 4.703.048 3.85.088 3.269.222 2.76.42a3.917 3.917 0 0 0-1.417.923A3.927 3.927 0 0 0 .42 2.76C.222 3.268.087 3.85.048 4.7.01 5.555 0 5.827 0 8c0 2.172.01 2.444.048 3.297.04.852.174 1.433.372 1.942.205.526.478.972.923 1.417.444.445.89.719 1.416.923.51.198 1.09.333 1.942.372C5.555 15.99 5.827 16 8 16c2.172 0 2.444-.01 3.298-.048.851-.04 1.434-.174 1.943-.372a3.916 3.916 0 0 0 1.416-.923c.445-.445.718-.891.923-1.417.197-.509.332-1.09.372-1.942C15.99 10.445 16 10.173 16 8c0-2.172-.01-2.444-.048-3.297-.04-.851-.175-1.433-.372-1.941a3.926 3.926 0 0 0-.923-1.417A3.911 3.911 0 0 0 13.24.42c-.51-.198-1.092-.333-1.943-.372C10.443.01 10.172 0 8 0zm0 1.44c2.136 0 2.38.01 3.21.048.78.036 1.203.166 1.485.275.373.145.64.319.92.599.28.28.453.546.598.92.11.281.24.705.275 1.485.038.83.047 1.074.047 3.21 0 2.137-.01 2.38-.048 3.21-.036.78-.166 1.203-.275 1.485-.145.373-.319.64-.599.92-.28.28-.546.453-.92.598-.28.11-.704.24-1.485.276-.83.038-1.074.047-3.21.047-2.136 0-2.38-.01-3.21-.048-.78-.036-1.203-.166-1.485-.276a2.272 2.272 0 0 1-.92-.598 2.272 2.272 0 0 1-.6-.92c-.109-.281-.24-.705-.275-1.485-.038-.83-.047-1.074-.047-3.21 0-2.136.01-2.38.048-3.21.036-.78.166-1.203.276-1.485.145-.373.319-.64.599-.92.28-.28.546-.453.92-.598.28-.11.704-.24 1.485-.276C5.56 1.45 5.804 1.44 8 1.44zm0 2.452a4.108 4.108 0 1 0 0 8.216 4.108 4.108 0 0 0 0-8.216zm0 6.775a2.667 2.667 0 1 1 0-5.334 2.667 2.667 0 0 1 0 5.334zm5.23-6.937a.96.96 0 1 1-1.92 0 .96.96 0 0 1 1.92 0z"/>
    </symbol>

    <defs>
    <linearGradient id="instagram-gradient" x1="0%" y1="0%" x2="100%" y2="100%">
        <stop offset="0%" stop-color="#fdf497" />
        <stop offset="5%" stop-color="#fdf497" />
        <stop offset="45%" stop-color="#fd5949" />
        <stop offset="60%" stop-color="#d6249f" />
        <stop offset="90%" stop-color="#285AEB" />
    </linearGradient>
</defs>
</svg>
